# xmcd
#
# Track frame offsets:
#	150
#	22287
#	48789
#	69568
#	92332
#	117318
#	136091
#	162979
#	190019
#	210617
#
# Disc length: 3074 seconds
#
# Revision: 1
# Processed by: cddbd v1.5.2PL0 Copyright (c) Steve Scherf et al.
# Submitted via: EZCDAudioConverter 8.0.2.1
#
DISCID=820c000a
DTITLE=Hương Lan - Tưởng Nhớ Bắc Sơn
DYEAR=2004
DGENRE=East Asia
TTITLE0=Chỉ sợ em thành núi biếc
TTITLE1=Giấc ngủ trên tay
TTITLE2=Chùm hoa phượng nhỏ
TTITLE3=Bông bí vàng
TTITLE4=Lặng lẽ
TTITLE5=Về thăm quê ngoại
TTITLE6=Sa mưa giông
TTITLE7=Hai mùa mưa nắng
TTITLE8=Tháng mấy em về
TTITLE9=Còn nghe thương thầm
EXTD=
EXTT0=
EXTT1=
EXTT2=
EXTT3=
EXTT4=
EXTT5=
EXTT6=
EXTT7=
EXTT8=
EXTT9=
PLAYORDER=
